<svg xmlns="http://www.w3.org/2000/svg" version="1.1" xmlns:xlink="http://www.w3.org/1999/xlink" xmlns:svgjs="http://svgjs.dev/svgjs" width="100" height="100"><svg width="100" height="100" viewBox="0 0 100 100" fill="none" xmlns="http://www.w3.org/2000/svg">
<path d="M65.4895 84.3384C60.0633 69.0244 46.7206 57.8863 30.6836 55.2832L0.4104 50.3694L30.6836 45.4556C46.7206 42.8526 60.0633 31.7144 65.4895 16.4005C65.527 16.2947 65.6271 16.224 65.7394 16.224H65.9096C66.0226 16.224 66.1233 16.2951 66.161 16.4016L67.8326 21.119C72.3412 33.8433 82.3512 43.8533 95.0755 48.362L99.8225 50.044C99.929 50.0817 100 50.1824 100 50.2954V50.4458C100 50.5588 99.9289 50.6595 99.8225 50.6972L95.0782 52.3778C82.3524 56.8858 72.3409 66.8965 67.8318 79.622L66.161 84.3373C66.1233 84.4437 66.0226 84.5149 65.9096 84.5149H65.7394C65.6271 84.5149 65.527 84.4442 65.4895 84.3384Z" fill="#F45A38"></path>
<path fill-rule="evenodd" clip-rule="evenodd" d="M16.8749 58.5309C24.0024 63.7817 29.4972 71.0919 32.5197 79.622L34.1905 84.3372C34.2282 84.4437 34.3289 84.5149 34.4419 84.5149H34.611C34.7239 84.5149 34.8246 84.4437 34.8624 84.3372L36.5177 79.6655C38.2952 74.6491 40.9276 70.0548 44.2441 66.0531C39.9134 63.349 35.0264 61.4772 29.8156 60.6314L16.8749 58.5309ZM47.9707 38.7328C52.4325 42.9579 57.7699 46.2704 63.7001 48.3872L69.4192 50.4287L63.8351 52.3963C57.8727 54.4971 52.5037 57.8053 48.0146 62.0349C42.864 58.6441 36.9816 56.3055 30.6836 55.2832L0.4104 50.3694L30.6836 45.4556C36.9637 44.4363 42.8306 42.1081 47.9707 38.7328ZM44.2112 34.7063C40.9276 30.7243 38.3199 26.1595 36.5552 21.1791L34.8623 16.4016C34.8246 16.2951 34.7239 16.224 34.611 16.224H34.4419C34.3289 16.224 34.2282 16.2951 34.1905 16.4016L32.5189 21.119C29.4969 29.6477 24.0034 36.9569 16.8776 42.2075L29.8156 40.1075C35.0132 39.2638 39.8886 37.3993 44.2112 34.7063Z" fill="#F45A38"></path>
</svg><style>@media (prefers-color-scheme: light) { :root { filter: none; } }
@media (prefers-color-scheme: dark) { :root { filter: none; } }
</style></svg>